<svg id="Layer_1" data-name="Layer 1" xmlns="http://www.w3.org/2000/svg" viewBox="0 0 408.79 408.79"><defs><style>.cls-1{fill:#1d1d1b;}</style></defs><path class="cls-1" d="M193.62,105.72v0c-80.23.08-87.84,1.6-87.84,98.62,0,95.91,2.76,98.66,98.63,98.66,52.58,0,95.35,6.16,97.92-50C309.55,94.13,296.46,105.56,193.62,105.72ZM204.4,266.16a61.79,61.79,0,1,1,61.77-61.78A61.78,61.78,0,0,1,204.4,266.16Zm64.23-111.59a14.44,14.44,0,1,1,14.43-14.44A14.45,14.45,0,0,1,268.63,154.57Z"/><path class="cls-1" d="M353.7,0H55.09A55.08,55.08,0,0,0,0,55.09V353.7a55.09,55.09,0,0,0,55.09,55.09H353.7a55.09,55.09,0,0,0,55.09-55.09V55.09A55.09,55.09,0,0,0,353.7,0ZM318.37,283.19c-18.1,46.44-66.79,41.53-114,41.53-48.94,0-96.14,4.4-114-41.53-7.31-18.81-6.32-47.88-6.32-78.81,0-35.25-1.07-59.87,6.32-78.83C108.27,79.66,155.07,84,204.37,84c45.81,0,77-2.89,100.11,20.19,22.8,22.79,20.2,53.14,20.2,100.15C324.68,239.79,325.77,264,318.37,283.19Z"/><path class="cls-1" d="M204.4,164.26c-53.1,0-53,80.23,0,80.23S257.42,164.26,204.4,164.26Z"/></svg>