<svg id="Layer_1" data-name="Layer 1" xmlns="http://www.w3.org/2000/svg" viewBox="0 0 408.79 408.79"><defs><style>.cls-1{fill:#1d1d1b;}</style></defs><path class="cls-1" d="M353.7,408.79a55.09,55.09,0,0,0,55.09-55.09V55.08A55.09,55.09,0,0,0,353.7,0H55.09A55.08,55.08,0,0,0,0,55.08V353.7a55.09,55.09,0,0,0,55.09,55.09Zm-178.55-91,.17-97h-27a6.39,6.39,0,0,1-6.38-6.36l-.13-33.55a6.38,6.38,0,0,1,6.38-6.4h27V142c0-37.62,23-58.11,56.54-58.11h27.54a6.38,6.38,0,0,1,6.38,6.38v28.3a6.38,6.38,0,0,1-6.37,6.38H242.32c-18.25,0-21.78,8.68-21.78,21.41v28.07h40.1a6.37,6.37,0,0,1,6.34,7.13l-4,33.55a6.38,6.38,0,0,1-6.33,5.63h-36l-.17,97.07a7,7,0,0,1-7,7H182.19A7,7,0,0,1,175.15,317.82Z"/></svg>