<svg id="Layer_1" data-name="Layer 1" xmlns="http://www.w3.org/2000/svg" viewBox="0 0 408.79 408.79"><defs><style>.cls-1{fill:#1d1d1b;}</style></defs><path class="cls-1" d="M353.7,408.79a55.09,55.09,0,0,0,55.09-55.09V55.08A55.09,55.09,0,0,0,353.7,0H55.09A55.08,55.08,0,0,0,0,55.08V353.7a55.09,55.09,0,0,0,55.09,55.09Zm-28.83-204.2s0,39.1-5,58a30.19,30.19,0,0,1-21.24,21.23c-18.86,5-94.28,5-94.28,5s-75.22,0-94.27-5.16a30.17,30.17,0,0,1-21.24-21.23c-5-18.66-5-58-5-58s0-39.09,5-57.95A30.8,30.8,0,0,1,110.12,125c18.86-5,94.27-5,94.27-5s75.42,0,94.28,5.16a30.2,30.2,0,0,1,21.24,21.24C325.07,165.3,324.87,204.59,324.87,204.59ZM180.38,240.51l62.72-36.12-62.72-36.12Z"/></svg>